<svg width="16" height="17" viewBox="0 0 16 17" fill="none" xmlns="http://www.w3.org/2000/svg">
<path d="M8 0.75C5.34969 0.75 3.1875 2.91219 3.1875 5.5625C3.1875 7.19806 4.01938 8.64525 5.27131 9.51562C2.44912 10.617 0.4375 13.367 0.4375 16.5625H1.8125C1.8125 13.5389 4.00631 11.0116 6.88281 10.4823L7.3125 11.75H8.6875L9.11719 10.4823C11.9937 11.0116 14.1875 13.5389 14.1875 16.5625H15.5625C15.5625 13.367 13.5509 10.617 10.7287 9.51562C11.9799 8.64525 12.8125 7.19806 12.8125 5.5625C12.8125 2.91219 10.6503 0.75 8 0.75ZM8 2.125C9.90644 2.125 11.4375 3.65606 11.4375 5.5625C11.4375 7.46894 9.90644 9 8 9C6.09356 9 4.5625 7.46894 4.5625 5.5625C4.5625 3.65606 6.09356 2.125 8 2.125ZM7.3125 12.4375L6.625 16.5625H9.375L8.6875 12.4375H7.3125Z" fill="#524B6B"/>
</svg>
