<svg width="20" height="20" viewBox="0 0 20 20" fill="none" xmlns="http://www.w3.org/2000/svg">
<mask id="path-1-inside-1_83_158" fill="white">
<path fill-rule="evenodd" clip-rule="evenodd" d="M9.99997 0C8.34312 0 6.99997 1.34315 6.99997 3V3.67363C6.65784 3.83616 6.33099 4.02563 6.02215 4.23929L5.4377 3.90185C4.00282 3.07343 2.16805 3.56505 1.33962 4.99993C0.511193 6.43481 1.00282 8.26958 2.4377 9.09801L3.0224 9.43558C3.00754 9.62176 2.99997 9.81 2.99997 10C2.99997 10.19 3.00754 10.3781 3.02239 10.5643L2.4377 10.9019C1.00282 11.7303 0.511192 13.5651 1.33962 14.9999C2.16805 16.4348 4.00282 16.9264 5.4377 16.098L6.02204 15.7606C6.33091 15.9743 6.6578 16.1638 6.99997 16.3264V17C6.99997 18.6569 8.34312 20 9.99997 20C11.6568 20 13 18.6569 13 17V16.3264C13.3421 16.1638 13.669 15.9744 13.9778 15.7607L14.5621 16.098C15.9969 16.9264 17.8317 16.4348 18.6601 14.9999C19.4886 13.5651 18.9969 11.7303 17.5621 10.9019L16.9775 10.5644C16.9924 10.3782 17 10.19 17 10C17 9.80996 16.9924 9.62169 16.9775 9.43548L17.5621 9.09801C18.9969 8.26958 19.4886 6.43481 18.6601 4.99993C17.8317 3.56505 15.9969 3.07343 14.5621 3.90186L13.9777 4.23922C13.6689 4.02559 13.3421 3.83614 13 3.67363V3C13 1.34315 11.6568 0 9.99997 0Z"/>
</mask>
<path d="M6.99997 3.67363L7.64361 5.02852L8.49997 4.62171V3.67363H6.99997ZM6.02215 4.23929L5.27215 5.53832L6.09457 6.01315L6.87555 5.47286L6.02215 4.23929ZM5.4377 3.90185L4.6877 5.20089H4.6877L5.4377 3.90185ZM1.33962 4.99993L0.0405825 4.24993H0.0405825L1.33962 4.99993ZM2.4377 9.09801L3.1877 7.79897H3.1877L2.4377 9.09801ZM3.0224 9.43558L4.51765 9.55488L4.59301 8.61033L3.7724 8.13655L3.0224 9.43558ZM3.02239 10.5643L3.77239 11.8633L4.59298 11.3896L4.51764 10.445L3.02239 10.5643ZM2.4377 10.9019L1.6877 9.60282L1.6877 9.60282L2.4377 10.9019ZM1.33962 14.9999L0.0405812 15.7499H0.0405814L1.33962 14.9999ZM5.4377 16.098L4.6877 14.799L4.68769 14.799L5.4377 16.098ZM6.02204 15.7606L6.87547 14.5271L6.09448 13.9868L5.27204 14.4616L6.02204 15.7606ZM6.99997 16.3264H8.49997V15.3783L7.64361 14.9715L6.99997 16.3264ZM13 16.3264L12.3563 14.9715L11.5 15.3783V16.3264H13ZM13.9778 15.7607L14.7278 14.4617L13.9054 13.9868L13.1244 14.5271L13.9778 15.7607ZM14.5621 16.098L15.3121 14.799L14.5621 16.098ZM18.6601 14.9999L19.9592 15.7499L19.9592 15.7499L18.6601 14.9999ZM17.5621 10.9019L16.8121 12.2009H16.8121L17.5621 10.9019ZM16.9775 10.5644L15.4823 10.4451L15.4069 11.3896L16.2275 11.8634L16.9775 10.5644ZM16.9775 9.43548L16.2275 8.13644L15.4069 8.61023L15.4823 9.5548L16.9775 9.43548ZM17.5621 9.09801L16.8121 7.79897L16.8121 7.79897L17.5621 9.09801ZM14.5621 3.90186L15.3121 5.20089L15.3121 5.20089L14.5621 3.90186ZM13.9777 4.23922L13.1243 5.47281L13.9053 6.01308L14.7277 5.53826L13.9777 4.23922ZM13 3.67363H11.5V4.62171L12.3563 5.02852L13 3.67363ZM8.49997 3C8.49997 2.17157 9.17155 1.5 9.99997 1.5V-1.5C7.51469 -1.5 5.49997 0.514718 5.49997 3H8.49997ZM8.49997 3.67363V3H5.49997V3.67363H8.49997ZM6.87555 5.47286C7.11838 5.30486 7.37513 5.15606 7.64361 5.02852L6.35633 2.31874C5.94055 2.51626 5.54359 2.74639 5.16874 3.00572L6.87555 5.47286ZM4.6877 5.20089L5.27215 5.53832L6.77215 2.94025L6.1877 2.60282L4.6877 5.20089ZM2.63866 5.74993C3.05287 5.03249 3.97026 4.78668 4.6877 5.20089L6.1877 2.60282C4.03538 1.36018 1.28322 2.09761 0.0405825 4.24993L2.63866 5.74993ZM3.1877 7.79897C2.47026 7.38475 2.22444 6.46737 2.63866 5.74993L0.0405825 4.24993C-1.20206 6.40225 -0.464621 9.1544 1.6877 10.397L3.1877 7.79897ZM3.7724 8.13655L3.1877 7.79897L1.6877 10.397L2.2724 10.7346L3.7724 8.13655ZM4.49997 10C4.49997 9.84986 4.50595 9.70142 4.51765 9.55488L1.52715 9.31628C1.50913 9.54211 1.49997 9.77014 1.49997 10H4.49997ZM4.51764 10.445C4.50595 10.2985 4.49997 10.1501 4.49997 10H1.49997C1.49997 10.2298 1.50913 10.4578 1.52714 10.6836L4.51764 10.445ZM3.1877 12.2009L3.77239 11.8633L2.27239 9.26524L1.6877 9.60282L3.1877 12.2009ZM2.63866 14.2499C2.22444 13.5325 2.47026 12.6151 3.1877 12.2009L1.6877 9.60282C-0.464621 10.8455 -1.20206 13.5976 0.0405812 15.7499L2.63866 14.2499ZM4.68769 14.799C3.97026 15.2132 3.05287 14.9674 2.63866 14.2499L0.0405814 15.7499C1.28322 17.9022 4.03538 18.6397 6.1877 17.397L4.68769 14.799ZM5.27204 14.4616L4.6877 14.799L6.18769 17.397L6.77204 17.0597L5.27204 14.4616ZM7.64361 14.9715C7.3751 14.8439 7.11832 14.6951 6.87547 14.5271L5.16861 16.9942C5.5435 17.2536 5.9405 17.4837 6.35634 17.6813L7.64361 14.9715ZM8.49997 17V16.3264H5.49997V17H8.49997ZM9.99997 18.5C9.17155 18.5 8.49997 17.8284 8.49997 17H5.49997C5.49997 19.4853 7.51469 21.5 9.99997 21.5V18.5ZM11.5 17C11.5 17.8284 10.8284 18.5 9.99997 18.5V21.5C12.4853 21.5 14.5 19.4853 14.5 17H11.5ZM11.5 16.3264V17H14.5V16.3264H11.5ZM13.1244 14.5271C12.8816 14.6951 12.6248 14.8439 12.3563 14.9715L13.6436 17.6813C14.0594 17.4837 14.4564 17.2536 14.8312 16.9943L13.1244 14.5271ZM15.3121 14.799L14.7278 14.4617L13.2278 17.0597L13.8121 17.397L15.3121 14.799ZM17.3611 14.2499C16.9469 14.9674 16.0295 15.2132 15.3121 14.799L13.8121 17.397C15.9644 18.6397 18.7165 17.9022 19.9592 15.7499L17.3611 14.2499ZM16.8121 12.2009C17.5295 12.6151 17.7753 13.5325 17.3611 14.2499L19.9592 15.7499C21.2018 13.5976 20.4644 10.8455 18.3121 9.60282L16.8121 12.2009ZM16.2275 11.8634L16.8121 12.2009L18.3121 9.60282L17.7276 9.26535L16.2275 11.8634ZM15.5 10C15.5 10.1501 15.494 10.2986 15.4823 10.4451L18.4728 10.6837C18.4908 10.4579 18.5 10.2298 18.5 10H15.5ZM15.4823 9.5548C15.494 9.70136 15.5 9.84982 15.5 10H18.5C18.5 9.7701 18.4908 9.54202 18.4728 9.31616L15.4823 9.5548ZM16.8121 7.79897L16.2275 8.13644L17.7275 10.7345L18.3121 10.397L16.8121 7.79897ZM17.3611 5.74993C17.7753 6.46737 17.5295 7.38476 16.8121 7.79897L18.3121 10.397C20.4644 9.1544 21.2018 6.40225 19.9592 4.24993L17.3611 5.74993ZM15.3121 5.20089C16.0295 4.78668 16.9469 5.03249 17.3611 5.74993L19.9592 4.24993C18.7165 2.09762 15.9644 1.36018 13.8121 2.60282L15.3121 5.20089ZM14.7277 5.53826L15.3121 5.20089L13.8121 2.60282L13.2277 2.94019L14.7277 5.53826ZM12.3563 5.02852C12.6248 5.15605 12.8815 5.30484 13.1243 5.47281L14.8311 3.00564C14.4563 2.74634 14.0594 2.51624 13.6436 2.31874L12.3563 5.02852ZM11.5 3V3.67363H14.5V3H11.5ZM9.99997 1.5C10.8284 1.5 11.5 2.17157 11.5 3H14.5C14.5 0.514719 12.4853 -1.5 9.99997 -1.5V1.5Z" fill="white" mask="url(#path-1-inside-1_83_158)"/>
</svg>
