<svg width="22" height="22" viewBox="0 0 22 22" fill="none" xmlns="http://www.w3.org/2000/svg">
<path d="M2.75 1.375H1.375V19.25C1.375 19.6147 1.51987 19.9644 1.77773 20.2223C2.03559 20.4801 2.38533 20.625 2.75 20.625H20.625V19.25H2.75V1.375Z" fill="#A49EB5"/>
<path d="M20.625 6.1875H15.8125V7.5625H18.2806L13.0625 12.7806L10.1131 9.82437C10.0492 9.75994 9.97317 9.70879 9.8894 9.67389C9.80562 9.63898 9.71576 9.62101 9.625 9.62101C9.53424 9.62101 9.44438 9.63898 9.3606 9.67389C9.27683 9.70879 9.20079 9.75994 9.13688 9.82437L4.125 14.8431L5.09437 15.8125L9.625 11.2819L12.5744 14.2381C12.6383 14.3026 12.7143 14.3537 12.7981 14.3886C12.8819 14.4235 12.9717 14.4415 13.0625 14.4415C13.1533 14.4415 13.2431 14.4235 13.3269 14.3886C13.4107 14.3537 13.4867 14.3026 13.5506 14.2381L19.25 8.53187V11H20.625V6.1875Z" fill="#A49EB5"/>
</svg>
