<svg width="24" height="24" viewBox="0 0 24 24" fill="none" xmlns="http://www.w3.org/2000/svg">
<path d="M5.39999 8.1002C5.39999 7.38411 5.68445 6.69736 6.1908 6.19101C6.69715 5.68466 7.3839 5.4002 8.09999 5.4002C8.81607 5.4002 9.50283 5.68466 10.0092 6.19101C10.5155 6.69736 10.8 7.38411 10.8 8.1002C10.8 8.81628 10.5155 9.50304 10.0092 10.0094C9.50283 10.5157 8.81607 10.8002 8.09999 10.8002C7.3839 10.8002 6.69715 10.5157 6.1908 10.0094C5.68445 9.50304 5.39999 8.81628 5.39999 8.1002ZM8.09999 4.2002C7.06564 4.2002 6.07366 4.61109 5.34227 5.34248C4.61088 6.07387 4.19999 7.06585 4.19999 8.1002C4.19999 9.13454 4.61088 10.1265 5.34227 10.8579C6.07366 11.5893 7.06564 12.0002 8.09999 12.0002C9.13433 12.0002 10.1263 11.5893 10.8577 10.8579C11.5891 10.1265 12 9.13454 12 8.1002C12 7.06585 11.5891 6.07387 10.8577 5.34248C10.1263 4.61109 9.13433 4.2002 8.09999 4.2002ZM14.9244 18.1742C15.57 18.4382 16.3824 18.6002 17.4 18.6002C19.6572 18.6002 20.9052 17.7986 21.5628 16.8794C21.9059 16.397 22.121 15.8355 22.188 15.2474C22.194 15.1928 22.198 15.1379 22.2 15.083V15.0002C22.2 14.7638 22.1534 14.5298 22.063 14.3114C21.9725 14.093 21.8399 13.8945 21.6728 13.7274C21.5056 13.5603 21.3072 13.4277 21.0888 13.3372C20.8704 13.2468 20.6364 13.2002 20.4 13.2002H14.844C15.132 13.5482 15.348 13.955 15.474 14.4002H20.4C20.5591 14.4002 20.7117 14.4634 20.8243 14.5759C20.9368 14.6885 21 14.8411 21 15.0002V15.065L20.994 15.125C20.948 15.5055 20.8078 15.8685 20.586 16.181C20.1936 16.7318 19.3416 17.4002 17.4 17.4002C16.5216 17.4002 15.8664 17.2634 15.3756 17.063C15.2772 17.399 15.1344 17.7782 14.9244 18.1742ZM1.79999 15.6002C1.79999 14.9637 2.05284 14.3532 2.50293 13.9031C2.95302 13.4531 3.56347 13.2002 4.19999 13.2002H12C12.6365 13.2002 13.247 13.4531 13.697 13.9031C14.1471 14.3532 14.4 14.9637 14.4 15.6002V15.701C14.4 15.713 14.4 15.7286 14.3976 15.749C14.383 15.9866 14.3489 16.2226 14.2956 16.4546C14.1936 16.8962 13.9908 17.4866 13.5816 18.0794C12.7404 19.2962 11.1156 20.4002 8.09999 20.4002C5.08439 20.4002 3.45959 19.2962 2.61839 18.0794C2.17538 17.4341 1.89915 16.6891 1.81439 15.911C1.80722 15.8412 1.80241 15.7711 1.79999 15.701V15.6002ZM2.99999 15.6722V15.6938L3.00839 15.7934C3.07341 16.3686 3.27861 16.9191 3.60599 17.3966C4.19039 18.2414 5.41559 19.2002 8.09999 19.2002C10.7844 19.2002 12.0096 18.2414 12.594 17.3966C12.9215 16.9192 13.1267 16.3687 13.1916 15.7934C13.1955 15.7603 13.1979 15.7271 13.1988 15.6938L13.2 15.6734V15.6002C13.2 15.2819 13.0736 14.9767 12.8485 14.7517C12.6235 14.5266 12.3182 14.4002 12 14.4002H4.19999C3.88173 14.4002 3.5765 14.5266 3.35146 14.7517C3.12642 14.9767 2.99999 15.2819 2.99999 15.6002V15.6722ZM15.6 9.0002C15.6 8.52281 15.7896 8.06497 16.1272 7.7274C16.4648 7.38984 16.9226 7.2002 17.4 7.2002C17.8774 7.2002 18.3352 7.38984 18.6728 7.7274C19.0103 8.06497 19.2 8.52281 19.2 9.0002C19.2 9.47759 19.0103 9.93542 18.6728 10.273C18.3352 10.6106 17.8774 10.8002 17.4 10.8002C16.9226 10.8002 16.4648 10.6106 16.1272 10.273C15.7896 9.93542 15.6 9.47759 15.6 9.0002ZM17.4 6.0002C16.6043 6.0002 15.8413 6.31627 15.2787 6.87888C14.7161 7.44148 14.4 8.20455 14.4 9.0002C14.4 9.79585 14.7161 10.5589 15.2787 11.1215C15.8413 11.6841 16.6043 12.0002 17.4 12.0002C18.1956 12.0002 18.9587 11.6841 19.5213 11.1215C20.0839 10.5589 20.4 9.79585 20.4 9.0002C20.4 8.20455 20.0839 7.44148 19.5213 6.87888C18.9587 6.31627 18.1956 6.0002 17.4 6.0002Z" fill="#524B6B"/>
</svg>
