<svg width="13" height="18" viewBox="0 0 13 18" fill="none" xmlns="http://www.w3.org/2000/svg">
<path d="M-0.00012207 13.4375V6H12.2499V13.4375C12.2499 14.1758 11.6483 14.75 10.9374 14.75H1.31238C0.574097 14.75 -0.00012207 14.1758 -0.00012207 13.4375ZM8.74988 8.07812V9.17188C8.74988 9.36328 8.8866 9.5 9.078 9.5H10.1718C10.3358 9.5 10.4999 9.36328 10.4999 9.17188V8.07812C10.4999 7.91406 10.3358 7.75 10.1718 7.75H9.078C8.8866 7.75 8.74988 7.91406 8.74988 8.07812ZM8.74988 11.5781V12.6719C8.74988 12.8633 8.8866 13 9.078 13H10.1718C10.3358 13 10.4999 12.8633 10.4999 12.6719V11.5781C10.4999 11.4141 10.3358 11.25 10.1718 11.25H9.078C8.8866 11.25 8.74988 11.4141 8.74988 11.5781ZM5.24988 8.07812V9.17188C5.24988 9.36328 5.3866 9.5 5.578 9.5H6.67175C6.83582 9.5 6.99988 9.36328 6.99988 9.17188V8.07812C6.99988 7.91406 6.83582 7.75 6.67175 7.75H5.578C5.3866 7.75 5.24988 7.91406 5.24988 8.07812ZM5.24988 11.5781V12.6719C5.24988 12.8633 5.3866 13 5.578 13H6.67175C6.83582 13 6.99988 12.8633 6.99988 12.6719V11.5781C6.99988 11.4141 6.83582 11.25 6.67175 11.25H5.578C5.3866 11.25 5.24988 11.4141 5.24988 11.5781ZM1.74988 8.07812V9.17188C1.74988 9.36328 1.8866 9.5 2.078 9.5H3.17175C3.33582 9.5 3.49988 9.36328 3.49988 9.17188V8.07812C3.49988 7.91406 3.33582 7.75 3.17175 7.75H2.078C1.8866 7.75 1.74988 7.91406 1.74988 8.07812ZM1.74988 11.5781V12.6719C1.74988 12.8633 1.8866 13 2.078 13H3.17175C3.33582 13 3.49988 12.8633 3.49988 12.6719V11.5781C3.49988 11.4141 3.33582 11.25 3.17175 11.25H2.078C1.8866 11.25 1.74988 11.4141 1.74988 11.5781ZM10.9374 2.5C11.6483 2.5 12.2499 3.10156 12.2499 3.8125V5.125H-0.00012207V3.8125C-0.00012207 3.10156 0.574097 2.5 1.31238 2.5H2.62488V1.1875C2.62488 0.96875 2.81628 0.75 3.06238 0.75H3.93738C4.15613 0.75 4.37488 0.96875 4.37488 1.1875V2.5H7.87488V1.1875C7.87488 0.96875 8.06628 0.75 8.31238 0.75H9.18738C9.40613 0.75 9.62488 0.96875 9.62488 1.1875V2.5H10.9374Z" fill="#FF9228"/>
</svg>
