<svg width="180" height="157" viewBox="0 0 180 157" fill="none" xmlns="http://www.w3.org/2000/svg">
<g opacity="0.8" clip-path="url(#clip0_6_1563)">
<path d="M8.68537 53.5006L0.00621905 48.6287C-0.110853 43.4164 1.05055 38.2543 3.38958 33.5908C5.3906 42.6421 15.9213 46.9484 20.78 54.8513C22.2764 57.3277 23.1945 60.108 23.4662 62.9861C23.7379 65.8642 23.3563 68.7663 22.3496 71.4775L22.9204 78.4952C18.4347 77.1562 14.2936 74.864 10.7824 71.7765C7.27121 68.6889 4.4734 64.8795 2.58173 60.6105C1.54432 58.2052 0.814971 55.6793 0.410902 53.0923C4.4575 53.5215 8.68537 53.5006 8.68537 53.5006Z" fill="#F2F2F2"/>
<path d="M164.708 142.132L164.974 136.169C167.748 134.691 170.842 133.91 173.988 133.895C169.659 137.422 170.2 144.222 167.264 148.966C166.338 150.439 165.09 151.685 163.614 152.612C162.139 153.538 160.473 154.122 158.74 154.32L155.117 156.531C154.619 153.769 154.729 150.932 155.438 148.216C156.147 145.5 157.438 142.97 159.222 140.799C160.236 139.592 161.398 138.516 162.681 137.597C163.548 139.877 164.708 142.132 164.708 142.132Z" fill="#E6E6E6"/>
<path d="M155.372 153.462L152.091 153.462L150.531 140.851L155.373 140.851L155.372 153.462Z" fill="#FFB6B6"/>
<path d="M156.209 156.631L145.63 156.631V156.497C145.631 155.409 146.064 154.365 146.837 153.596C147.609 152.826 148.656 152.394 149.748 152.394H149.748L151.68 150.933L155.286 152.394L156.209 152.394L156.209 156.631Z" fill="#2F2E41"/>
<path d="M140.131 153.462L136.85 153.462L135.289 140.851L140.131 140.851L140.131 153.462Z" fill="#FFB6B6"/>
<path d="M140.967 156.631L130.389 156.631V156.497C130.389 155.409 130.823 154.365 131.595 153.596C132.367 152.826 133.414 152.394 134.506 152.394H134.507L136.439 150.933L140.044 152.394L140.968 152.394L140.967 156.631Z" fill="#2F2E41"/>
<path d="M138.711 84.5161L160.05 85.0478C164.102 87.2415 164.164 91.9896 162.836 97.627C162.836 97.627 163.284 100.978 162.388 101.871C161.491 102.765 161.043 102.765 161.491 104.328C161.94 105.892 159.571 108.446 159.859 108.733C160.146 109.019 160.819 110.583 160.819 110.583L158.577 123.315C158.577 123.315 157.008 145.43 156.56 145.877C156.112 146.323 155.664 145.877 156.112 146.994C156.56 148.11 157.008 147.664 156.56 148.11C156.163 148.537 155.789 148.984 155.439 149.451H150.02C150.02 149.451 149.612 147.217 149.612 146.994C149.612 146.77 149.164 145.43 149.164 145.207C149.164 144.983 149.56 144.588 149.56 144.588C149.697 144.134 149.789 143.668 149.836 143.196C149.836 142.749 151.181 125.549 151.181 125.549L148.491 103.211L141.991 125.102C141.991 125.102 141.991 144.313 141.543 144.76C141.094 145.206 141.094 144.983 141.319 145.877C141.543 146.77 142.439 146.547 141.767 147.217C141.094 147.887 140.87 146.77 141.094 147.887L141.319 149.004L134.594 149.1C134.594 149.1 133.698 147.217 134.146 146.547C134.594 145.877 134.568 146.06 134.021 144.963C133.474 143.866 133.25 143.643 133.474 143.419C133.698 143.196 133.698 142.008 133.698 142.008L134.819 120.635C134.819 120.635 135.043 98.0737 135.043 97.4036C135.06 97.0588 134.996 96.7148 134.856 96.3987V95.4891L135.715 92.2659L138.711 84.5161Z" fill="#69687F"/>
<path d="M151.529 40.2954C155.191 40.2954 158.159 37.337 158.159 33.6877C158.159 30.0384 155.191 27.0801 151.529 27.0801C147.868 27.0801 144.899 30.0384 144.899 33.6877C144.899 37.337 147.868 40.2954 151.529 40.2954Z" fill="#FFB6B6"/>
<path d="M148.214 44.6627C146.786 45.509 145.931 47.0639 145.441 48.6462C144.533 51.5757 143.986 54.6044 143.813 57.6656L143.295 66.8303L136.879 86.3444C142.44 91.0337 163.342 87.4101 163.342 87.4101C163.342 87.4101 163.983 87.197 163.342 86.5575C162.7 85.9181 162.075 86.4846 162.717 85.8451C163.359 85.2057 162.916 85.9181 162.702 85.2786C162.489 84.6392 162.702 85.0655 162.916 84.8523C163.13 84.6392 161.261 82.7208 161.261 82.7208L162.972 71.5195L165.11 48.9257C162.544 45.7284 157.382 43.8437 157.382 43.8437L156.049 41.4512L149.38 41.9828L148.214 44.6627Z" fill="#130160"/>
<path d="M147.305 29.8098C147.561 29.8118 147.817 29.8452 148.065 29.9092C148.555 30.0266 149.052 30.1097 149.553 30.1579C151.088 30.3019 152.53 30.9542 153.65 32.0108C154.769 33.0675 155.5 34.4674 155.728 35.987C156.113 35.6523 156.99 35.0365 157.708 35.6088C157.719 35.6179 157.726 35.6225 157.751 35.6106C158.228 35.385 159.075 32.6081 159.101 30.163C159.114 28.8653 158.909 27.2081 157.856 26.6833L157.801 26.6557L157.786 26.5956C157.716 26.3036 156.93 25.8053 155.563 25.4175C153.08 24.7127 149.379 23.3397 147.295 25.3603C147.137 26.0415 146.624 27.4992 146.106 27.6645C145.532 27.8474 145.036 28.0052 144.958 28.7069C144.893 29.7055 144.897 30.7074 144.972 31.7053C145.167 31.0947 145.548 30.5602 146.064 30.1772C146.43 29.9313 146.863 29.8032 147.305 29.8098Z" fill="#2F2E41"/>
<path d="M134.964 66.3199L145.795 59.4074L140.34 52.1807L134.953 58.7839L118.17 59.8098C117.729 59.3749 117.17 59.0774 116.562 58.9536C115.954 58.8298 115.323 58.885 114.745 59.1125C114.168 59.34 113.67 59.73 113.311 60.2348C112.953 60.7397 112.749 61.3376 112.726 61.9558C112.702 62.5739 112.859 63.1855 113.179 63.716C113.498 64.2465 113.965 64.673 114.523 64.9435C115.081 65.214 115.707 65.3168 116.322 65.2393C116.938 65.1618 117.518 64.9074 117.991 64.5072L134.964 66.3199Z" fill="#FFB6B6"/>
<path d="M155.847 49.7591C156.475 53.5503 144.605 60.7899 144.605 60.7899C144.605 59.9 137.52 66.6179 137.2 65.8799C136.291 63.7824 135.652 58.8143 134.382 58.0192C133.656 57.5644 138.756 53.2925 138.756 53.2925C138.756 53.2925 141.426 50.6119 144.93 47.2307C145.903 46.2565 147.107 45.5434 148.431 45.1578C149.754 44.7722 151.154 44.7266 152.501 45.0253C152.501 45.0253 155.218 45.9679 155.847 49.7591Z" fill="#130160"/>
<path d="M178.17 68.1346L171.006 57.4897L163.872 63.0779L170.61 68.305L171.995 85.0054C171.568 85.4544 171.281 86.0175 171.17 86.6261C171.059 87.2346 171.127 87.8623 171.368 88.4326C171.608 89.0029 172.01 89.4911 172.524 89.8378C173.038 90.1844 173.642 90.3746 174.263 90.3849C174.883 90.3953 175.494 90.2255 176.019 89.8963C176.544 89.567 176.962 89.0925 177.222 88.5306C177.481 87.9686 177.571 87.3436 177.481 86.7317C177.39 86.1197 177.122 85.5473 176.711 85.0843L178.17 68.1346Z" fill="#FFB6B6"/>
<path d="M161.114 47.6783C164.904 46.9717 172.418 58.6459 172.418 58.6459C171.525 58.6649 178.414 65.5819 177.681 65.9161C175.596 66.8661 170.626 67.608 169.855 68.8903C169.414 69.6236 165.02 64.6319 165.02 64.6319C165.02 64.6319 162.275 62.0284 158.809 58.609C157.811 57.6604 157.07 56.4756 156.655 55.1648C156.24 53.8541 156.165 52.4601 156.436 51.1125C156.436 51.1125 157.324 48.3849 161.114 47.6783Z" fill="#130160"/>
<path d="M180 156.684C180 156.725 179.992 156.766 179.976 156.805C179.96 156.843 179.937 156.878 179.907 156.908C179.878 156.937 179.843 156.96 179.804 156.976C179.766 156.992 179.724 157 179.683 157H104.918C104.834 157 104.753 156.967 104.694 156.907C104.634 156.848 104.601 156.767 104.601 156.684C104.601 156.6 104.634 156.519 104.694 156.46C104.753 156.401 104.834 156.367 104.918 156.367H179.683C179.724 156.367 179.766 156.375 179.804 156.391C179.843 156.407 179.878 156.43 179.907 156.46C179.937 156.489 179.96 156.524 179.976 156.562C179.992 156.601 180 156.642 180 156.684Z" fill="#130160"/>
<path d="M110.74 60.8203H20.0032C18.5856 60.8219 17.2265 61.3838 16.2241 62.3828C15.2217 63.3818 14.6578 64.7363 14.6562 66.1491V122.449C14.6579 123.862 15.2217 125.216 16.2241 126.215C17.2265 127.214 18.5856 127.776 20.0032 127.778H110.74C112.157 127.776 113.516 127.214 114.519 126.215C115.521 125.216 116.085 123.862 116.087 122.449V66.1491C116.085 64.7363 115.521 63.3818 114.519 62.3828C113.516 61.3838 112.157 60.8219 110.74 60.8203Z" fill="#FCA34D"/>
<path d="M110.74 60.8203H20.0032C18.5856 60.8219 17.2265 61.3838 16.2241 62.3828C15.2217 63.3818 14.6578 64.7363 14.6562 66.1491V122.449C14.6579 123.862 15.2217 125.216 16.2241 126.215C17.2265 127.214 18.5856 127.776 20.0032 127.778H110.74C112.157 127.776 113.516 127.214 114.519 126.215C115.521 125.216 116.085 123.862 116.087 122.449V66.1491C116.085 64.7363 115.521 63.3818 114.519 62.3828C113.516 61.3838 112.157 60.8219 110.74 60.8203ZM112.494 101.261C112.473 106.993 110.198 112.488 106.158 116.567C102.118 120.647 96.6341 122.985 90.8837 123.082C81.6768 123.201 95.9777 123.248 84.8736 123.248C59.482 123.248 33.0057 123.006 23.1271 122.849C21.8273 122.823 20.5896 122.291 19.6781 121.367C18.7666 120.443 18.2535 119.201 18.2485 117.905V66.1533C18.249 65.6894 18.4339 65.2445 18.7627 64.916C19.0914 64.5876 19.5373 64.4022 20.0029 64.4006H110.736C111.201 64.4011 111.648 64.5853 111.977 64.9129C112.307 65.2405 112.493 65.6848 112.494 66.1486V101.261Z" fill="#130160"/>
<path d="M99.5702 28.4009H30.4385C29.8269 28.4018 29.2304 28.5907 28.7305 28.942C28.2306 29.2933 27.8517 29.7898 27.6455 30.3637L16.9686 60.2166C16.8093 60.6622 16.7596 61.1394 16.8237 61.6081C16.8879 62.0768 17.064 62.5233 17.3372 62.9101C17.6105 63.2969 17.9729 63.6126 18.3941 63.8308C18.8153 64.049 19.2828 64.1632 19.7575 64.1639L112.474 64.3279H112.478C112.969 64.3278 113.452 64.2065 113.884 63.9746C114.316 63.7428 114.684 63.4077 114.954 62.9995C115.224 62.5913 115.388 62.1226 115.432 61.6355C115.475 61.1485 115.397 60.6582 115.204 60.2087L115.042 60.2777L115.204 60.2087L102.296 30.1919C102.067 29.6601 101.687 29.2068 101.203 28.8884C100.718 28.5699 100.151 28.4004 99.5702 28.4009Z" fill="#130160"/>
<path d="M115.444 60.8569C115.444 61.2572 115.362 61.6533 115.204 62.0213L102.296 85.1274C102.066 85.658 101.686 86.1102 101.202 86.428C100.717 86.7459 100.15 86.9157 99.5702 86.9164H30.4396C29.8277 86.9158 29.2309 86.7271 28.7306 86.376C28.2304 86.0249 27.851 85.5285 27.6442 84.9546L16.9693 62.0133C16.8385 61.6478 16.7812 61.2602 16.8007 60.8726C16.8203 60.4851 16.9163 60.1051 17.0832 59.7546C17.2502 59.404 17.4849 59.0896 17.7738 58.8295C18.0627 58.5694 18.4003 58.3685 18.7671 58.2385C19.0845 58.1243 19.4193 58.0658 19.7567 58.0657L31.0825 58.0444L35.705 58.0365L96.5321 57.9301L101.157 57.9222L112.475 57.9009H112.478C113.264 57.901 114.019 58.2125 114.575 58.7668C115.131 59.3212 115.444 60.073 115.444 60.8569Z" fill="#130160"/>
<path d="M26.8055 103.052C28.1764 103.052 47.0014 104.198 47.0014 105.565C47.0014 106.931 28.1764 107.999 26.8055 107.999C26.1472 107.999 25.5159 107.739 25.0504 107.275C24.5849 106.811 24.3234 106.182 24.3234 105.525C24.3234 104.869 24.5849 104.24 25.0504 103.776C25.5159 103.312 26.1472 103.052 26.8055 103.052Z" fill="#130160"/>
<path d="M95.265 10.2397H36.9747C35.4125 10.2415 33.9148 10.8608 32.8102 11.9617C31.7056 13.0625 31.0842 14.5551 31.0824 16.112V86.9163H99.5702C100.133 86.9181 100.684 86.7584 101.157 86.4564V16.112C101.155 14.5551 100.534 13.0625 99.4295 11.9617C98.3249 10.8608 96.8272 10.2415 95.265 10.2397Z" fill="#E6E6E6"/>
<path d="M73.0163 15.001H41.0717C39.6493 15.0024 38.2854 15.5659 37.2793 16.5681C36.2732 17.5703 35.707 18.9292 35.705 20.3469V86.9165H96.532V38.4367C96.5248 32.2234 94.0449 26.2666 89.6365 21.8731C85.228 17.4796 79.2509 15.0081 73.0163 15.001Z" fill="white"/>
<path d="M86.1692 81.0044H46.0678C45.7211 81.0044 45.3887 81.1416 45.1436 81.3859C44.8984 81.6302 44.7607 81.9615 44.7607 82.307C44.7607 82.6524 44.8984 82.9838 45.1436 83.228C45.3887 83.4723 45.7211 83.6095 46.0678 83.6095H86.1692C86.5159 83.6095 86.8483 83.4723 87.0934 83.228C87.3385 82.9838 87.4762 82.6524 87.4762 82.307C87.4762 81.9615 87.3385 81.6302 87.0934 81.3859C86.8483 81.1416 86.5159 81.0044 86.1692 81.0044Z" fill="#E4E4E4"/>
<path d="M86.1692 75.8525H46.0678C45.7208 75.8525 45.388 75.9899 45.1426 76.2344C44.8972 76.479 44.7594 76.8106 44.7594 77.1564C44.7594 77.5023 44.8972 77.8339 45.1426 78.0784C45.388 78.323 45.7208 78.4604 46.0678 78.4604H86.1692C86.5162 78.4604 86.849 78.323 87.0944 78.0784C87.3397 77.8339 87.4776 77.5023 87.4776 77.1564C87.4776 76.8106 87.3397 76.479 87.0944 76.2344C86.849 75.9899 86.5162 75.8525 86.1692 75.8525Z" fill="#E4E4E4"/>
<path d="M63.4511 70.7036H46.0678C45.7211 70.7036 45.3887 70.8408 45.1436 71.0851C44.8984 71.3294 44.7607 71.6607 44.7607 72.0062C44.7607 72.3516 44.8984 72.683 45.1436 72.9272C45.3887 73.1715 45.7211 73.3088 46.0678 73.3088H63.4511C63.7977 73.3088 64.1302 73.1715 64.3753 72.9272C64.6204 72.683 64.7581 72.3516 64.7581 72.0062C64.7581 71.6607 64.6204 71.3294 64.3753 71.0851C64.1302 70.8408 63.7977 70.7036 63.4511 70.7036Z" fill="#E4E4E4"/>
<path d="M86.1692 59.916H46.0678C45.7208 59.916 45.388 60.0534 45.1426 60.2979C44.8972 60.5425 44.7594 60.8741 44.7594 61.2199C44.7594 61.5657 44.8972 61.8974 45.1426 62.1419C45.388 62.3864 45.7208 62.5238 46.0678 62.5238H86.1692C86.5162 62.5238 86.849 62.3864 87.0944 62.1419C87.3397 61.8974 87.4776 61.5657 87.4776 61.2199C87.4776 60.8741 87.3397 60.5425 87.0944 60.2979C86.849 60.0534 86.5162 59.916 86.1692 59.916Z" fill="#E4E4E4"/>
<path d="M86.1692 54.7666H46.0678C45.7211 54.7666 45.3887 54.9038 45.1436 55.1481C44.8984 55.3924 44.7607 55.7237 44.7607 56.0692C44.7607 56.4146 44.8984 56.746 45.1436 56.9902C45.3887 57.2345 45.7211 57.3718 46.0678 57.3718H86.1692C86.5159 57.3718 86.8483 57.2345 87.0934 56.9902C87.3385 56.746 87.4762 56.4146 87.4762 56.0692C87.4762 55.7237 87.3385 55.3924 87.0934 55.1481C86.8483 54.9038 86.5159 54.7666 86.1692 54.7666Z" fill="#E4E4E4"/>
<path d="M63.4511 49.6152H46.0678C45.7208 49.6152 45.388 49.7526 45.1426 49.9971C44.8972 50.2417 44.7594 50.5733 44.7594 50.9191C44.7594 51.265 44.8972 51.5966 45.1426 51.8411C45.388 52.0857 45.7208 52.223 46.0678 52.223H63.4511C63.7981 52.223 64.1309 52.0857 64.3763 51.8411C64.6216 51.5966 64.7595 51.265 64.7595 50.9191C64.7595 50.5733 64.6216 50.2417 64.3763 49.9971C64.1309 49.7526 63.7981 49.6152 63.4511 49.6152Z" fill="#E4E4E4"/>
<path d="M86.1692 38.8276H46.0678C45.7208 38.8276 45.388 38.965 45.1426 39.2095C44.8972 39.4541 44.7594 39.7857 44.7594 40.1315C44.7594 40.4774 44.8972 40.809 45.1426 41.0535C45.388 41.2981 45.7208 41.4355 46.0678 41.4355H86.1692C86.5162 41.4355 86.849 41.2981 87.0944 41.0535C87.3397 40.809 87.4776 40.4774 87.4776 40.1315C87.4776 39.7857 87.3397 39.4541 87.0944 39.2095C86.849 38.965 86.5162 38.8276 86.1692 38.8276Z" fill="#130160"/>
<path d="M86.1692 33.6782H46.0678C45.7208 33.6782 45.388 33.8156 45.1426 34.0601C44.8972 34.3047 44.7594 34.6363 44.7594 34.9821C44.7594 35.328 44.8972 35.6596 45.1426 35.9041C45.388 36.1487 45.7208 36.286 46.0678 36.286H86.1692C86.5162 36.286 86.849 36.1487 87.0944 35.9041C87.3397 35.6596 87.4776 35.328 87.4776 34.9821C87.4776 34.6363 87.3397 34.3047 87.0944 34.0601C86.849 33.8156 86.5162 33.6782 86.1692 33.6782Z" fill="#130160"/>
<path d="M63.4511 28.5264H46.0678C45.7208 28.5264 45.388 28.6637 45.1426 28.9083C44.8972 29.1528 44.7594 29.4845 44.7594 29.8303C44.7594 30.1761 44.8972 30.5078 45.1426 30.7523C45.388 30.9968 45.7208 31.1342 46.0678 31.1342H63.4511C63.7981 31.1342 64.1309 30.9968 64.3763 30.7523C64.6216 30.5078 64.7595 30.1761 64.7595 29.8303C64.7595 29.4845 64.6216 29.1528 64.3763 28.9083C64.1309 28.6637 63.7981 28.5264 63.4511 28.5264Z" fill="#130160"/>
<path d="M98.9719 20.2898C104.594 20.2898 109.151 15.7478 109.151 10.1449C109.151 4.54203 104.594 0 98.9719 0C93.3499 0 88.7924 4.54203 88.7924 10.1449C88.7924 15.7478 93.3499 20.2898 98.9719 20.2898Z" fill="#FCA34D"/>
<path d="M97.5832 15.4248C97.4074 15.4248 97.234 15.384 97.0768 15.3057C96.9196 15.2273 96.7829 15.1135 96.6774 14.9733L93.9003 11.283C93.8106 11.1645 93.7453 11.0295 93.708 10.8858C93.6707 10.7421 93.6623 10.5924 93.6832 10.4454C93.704 10.2984 93.7538 10.157 93.8296 10.0292C93.9054 9.90142 94.0058 9.78979 94.125 9.70073C94.2441 9.61166 94.3798 9.5469 94.5241 9.51016C94.6684 9.47342 94.8186 9.46542 94.966 9.48663C95.1134 9.50783 95.2552 9.55781 95.3832 9.63371C95.5113 9.70961 95.623 9.80994 95.712 9.92895L97.5289 12.3431L102.195 5.36727C102.362 5.11824 102.621 4.94536 102.915 4.88667C103.21 4.82797 103.516 4.88826 103.766 5.05428C104.016 5.2203 104.189 5.47845 104.248 5.77193C104.307 6.06542 104.246 6.3702 104.08 6.61923L98.5254 14.9223C98.425 15.0725 98.2898 15.1964 98.1314 15.2838C97.9729 15.3712 97.7957 15.4194 97.6147 15.4245C97.6042 15.4246 97.5937 15.4248 97.5832 15.4248Z" fill="white"/>
<path d="M111 130C112.25 131.67 113 133.75 113 136C113 141.52 108.52 146 103 146C97.48 146 93 141.52 93 136C93 130.48 97.48 126 103 126M103 124V136L112.6 128.8C110.41 125.89 106.92 124 103 124Z" stroke="black" stroke-width="2"/>
</g>
<defs>
<clipPath id="clip0_6_1563">
<rect width="180" height="157" fill="white"/>
</clipPath>
</defs>
</svg>
