<svg width="20" height="20" viewBox="0 0 20 20" fill="none" xmlns="http://www.w3.org/2000/svg">
<path d="M2.83978 17.4702H18.5159C19.0931 17.4702 19.561 17.9381 19.561 18.5153C19.561 19.0925 19.0931 19.5604 18.5159 19.5604H1.79471C1.21753 19.5604 0.749634 19.0925 0.749634 18.5153V1.7941C0.749634 1.21692 1.21753 0.749023 1.79471 0.749023C2.37189 0.749023 2.83978 1.21692 2.83978 1.7941V17.4702Z" fill="#4AD991"/>
<path opacity="0.5" d="M6.73773 12.9591C6.34298 13.3802 5.68162 13.4015 5.26055 13.0068C4.83947 12.612 4.81814 11.9507 5.21289 11.5296L9.13192 7.34928C9.5137 6.94206 10.1481 6.90674 10.5727 7.26908L13.6659 9.90856L17.6959 4.80379C18.0536 4.35078 18.7108 4.27346 19.1638 4.63111C19.6168 4.98875 19.6941 5.64592 19.3365 6.09894L14.6336 12.0559C14.2663 12.5211 13.5859 12.5881 13.135 12.2033L9.97463 9.50642L6.73773 12.9591Z" fill="#4AD991"/>
</svg>
