<svg width="22" height="17" viewBox="0 0 22 17" fill="none" xmlns="http://www.w3.org/2000/svg">
<path opacity="0.587821" fill-rule="evenodd" clip-rule="evenodd" d="M4.88208 3.67449C4.88208 5.65316 6.48611 7.25719 8.46478 7.25719C10.4434 7.25719 12.0475 5.65316 12.0475 3.67449C12.0475 1.69583 10.4434 0.0917969 8.46478 0.0917969C6.48611 0.0917969 4.88208 1.69583 4.88208 3.67449ZM13.8386 7.25708C13.8386 8.74108 15.0416 9.94411 16.5256 9.94411C18.0096 9.94411 19.2127 8.74108 19.2127 7.25708C19.2127 5.77308 18.0096 4.57006 16.5256 4.57006C15.0416 4.57006 13.8386 5.77308 13.8386 7.25708Z" fill="#8280FF"/>
<path fill-rule="evenodd" clip-rule="evenodd" d="M8.44959 9.04883C4.22073 9.04883 0.751196 11.2222 0.404026 15.497C0.385115 15.7298 0.830421 16.2142 1.05505 16.2142H15.8509C16.5237 16.2142 16.5342 15.6728 16.5237 15.4977C16.2613 11.1028 12.738 9.04883 8.44959 9.04883ZM16.1687 10.8407C17.2929 12.3376 17.9591 14.1981 17.9592 16.2142H21.413C21.8989 16.2142 21.9065 15.8081 21.8989 15.6768C21.7114 12.4166 19.22 10.874 16.1687 10.8407Z" fill="#8280FF"/>
</svg>
