<svg width="30" height="30" viewBox="0 0 30 30" fill="none" xmlns="http://www.w3.org/2000/svg">
<path d="M26.25 15.75C26.6642 15.75 27 15.4142 27 15C27 14.5858 26.6642 14.25 26.25 14.25V15.75ZM2.95825 14.4697C2.66535 14.7626 2.66535 15.2374 2.95825 15.5303L7.73122 20.3033C8.02411 20.5962 8.49899 20.5962 8.79188 20.3033C9.08477 20.0104 9.08477 19.5355 8.79188 19.2426L4.54924 15L8.79188 10.7574C9.08477 10.4645 9.08477 9.98959 8.79188 9.6967C8.49899 9.40381 8.02411 9.40381 7.73122 9.6967L2.95825 14.4697ZM26.25 14.25L3.48858 14.25V15.75L26.25 15.75V14.25Z" fill="white"/>
</svg>
