<svg width="153" height="152" viewBox="0 0 153 152" fill="none" xmlns="http://www.w3.org/2000/svg">
<path opacity="0.3" d="M143.157 38.5844C140.317 45.7757 135.8 26.5391 128.609 23.6984C121.418 20.8578 103.447 22.0723 106.287 14.8811C109.128 7.6898 130.086 7.07889 137.277 9.91955C144.469 12.7602 145.998 31.3932 143.157 38.5844Z" fill="#03A9F4"/>
<circle opacity="0.1" cx="130" cy="145.644" r="6" fill="#03A9F4"/>
<circle opacity="0.1" cx="120" cy="36.6436" r="6" fill="#03A9F4"/>
<circle opacity="0.1" cx="6" cy="74.6436" r="6" fill="#03A9F4"/>
<rect x="84.7427" y="39.2373" width="64.5508" height="86.0678" rx="18" transform="rotate(30 84.7427 39.2373)" fill="#FFEBCC"/>
<circle opacity="0.1" cx="42" cy="129.644" r="11" fill="#03A9F4"/>
<rect x="39" y="44.6436" width="72" height="96" rx="18" fill="#FFB237"/>
<circle opacity="0.1" cx="97.5" cy="60.1436" r="17.5" fill="#301008"/>
<circle cx="101.5" cy="55.1436" r="17.5" fill="#FFF6F4"/>
<path d="M107.916 52.1273L100.326 59.7178L95.7894 55.1813" stroke="#39B070" stroke-width="2" stroke-linecap="round"/>
<rect x="50" y="59.6436" width="19" height="19" rx="5" fill="white"/>
<path d="M52 93.6436H99.5" stroke="white" stroke-width="5"/>
<path d="M52 106.644H99.5" stroke="white" stroke-width="5"/>
<path d="M52 119.644L78 119.644" stroke="white" stroke-width="5"/>
<path d="M120.161 77.3961C121.627 76.9239 123.054 78.215 122.73 79.7202L122.184 82.2602C121.86 83.7654 120.028 84.3557 118.887 83.3228L116.96 81.5797C115.818 80.5468 116.223 78.6653 117.688 78.1931L120.161 77.3961Z" fill="#FBCBCB"/>
<path d="M26.4535 138.462C27.1862 138.226 27.8997 138.871 27.7379 139.624L27.2248 142.01C27.063 142.762 26.1471 143.057 25.5762 142.541L23.7667 140.904C23.1959 140.387 23.3982 139.447 24.1309 139.21L26.4535 138.462Z" fill="#FBCBCB"/>
<path d="M45.4535 33.4619C46.1862 33.2258 46.8997 33.8714 46.7379 34.6239L46.2248 37.0097C46.063 37.7623 45.1471 38.0574 44.5762 37.541L42.7667 35.9038C42.1959 35.3873 42.3982 34.4466 43.1309 34.2104L45.4535 33.4619Z" fill="#FBCBCB"/>
</svg>
