<svg width="335" height="75" viewBox="0 0 335 75" fill="none" xmlns="http://www.w3.org/2000/svg">
<path d="M15 74.75C14.5118 74.75 14.0293 74.7263 13.5534 74.68L13.5292 74.9288C12.536 74.8321 11.5711 74.6386 10.6443 74.3578L10.7167 74.1185C9.78405 73.836 8.89038 73.4635 8.04584 73.0111L7.9278 73.2315C7.05841 72.7658 6.24025 72.217 5.48396 71.5956L5.64266 71.4024C4.89615 70.7891 4.21092 70.1039 3.59757 69.3573L3.4044 69.516C2.78302 68.7598 2.23418 67.9416 1.76852 67.0722L1.9889 66.9542C1.53654 66.1096 1.16404 65.216 0.88146 64.2833L0.6422 64.3558C0.361379 63.4289 0.167855 62.464 0.0711953 61.4708L0.32002 61.4466C0.273707 60.9707 0.25 60.4882 0.25 60V58.5938H0V55.7812H0.25V52.9688H0V50.1562H0.25V47.3438H0V44.5312H0.25V41.7188H0V38.9062H0.25V36.0938H0V33.2812H0.25V30.4688H0V27.6562H0.25V24.8438H0V22.0312H0.25V19.2188H0V16.4062H0.25V15C0.25 14.5118 0.273707 14.0293 0.320019 13.5534L0.0711949 13.5292C0.167854 12.536 0.361378 11.5711 0.642199 10.6443L0.881459 10.7167C1.16404 9.78404 1.53654 8.89038 1.98889 8.04583L1.76852 7.92779C2.23418 7.0584 2.78302 6.24024 3.4044 5.48395L3.59756 5.64266C4.21091 4.89614 4.89614 4.21091 5.64266 3.59756L5.48395 3.4044C6.24025 2.78302 7.0584 2.23418 7.92779 1.76852L8.04583 1.98889C8.89038 1.53654 9.78404 1.16404 10.7167 0.881459L10.6443 0.642199C11.5711 0.361378 12.536 0.167854 13.5292 0.0711948L13.5534 0.320019C14.0293 0.273707 14.5118 0.25 15 0.25H16.4951V0H19.4853V0.25H22.4755V0H25.4657V0.25H28.4559V0H31.4461V0.25H34.4363V0H37.4265V0.25H40.4167V0H43.4069V0.25H46.3971V0H49.3873V0.25H52.3774V0H55.3676V0.25H58.3578V0H61.348V0.25H64.3382V0H67.3284V0.25H70.3186V0H73.3088V0.25H76.299V0H79.2892V0.25H82.2794V0H85.2696V0.25H88.2598V0H91.25V0.25H94.2402V0H97.2304V0.25H100.221V0H103.211V0.25H106.201V0H109.191V0.25H112.181V0H115.172V0.25H118.162V0H121.152V0.25H124.142V0H127.132V0.25H130.123V0H133.113V0.25H136.103V0H139.093V0.25H142.083V0H145.074V0.25H148.064V0H151.054V0.25H154.044V0H157.034V0.25H160.024V0H163.015V0.25H166.005V0H168.995V0.25H171.985V0H174.975V0.25H177.966V0H180.956V0.25H183.946V0H186.936V0.25H189.926V0H192.917V0.25H195.907V0H198.897V0.25H201.887V0H204.877V0.25H207.867V0H210.858V0.25H213.848V0H216.838V0.25H219.828V0H222.818V0.25H225.809V0H228.799V0.25H231.789V0H234.779V0.25H237.769V0H240.76V0.25H243.75V0H246.74V0.25H249.73V0H252.72V0.25H255.711V0H258.701V0.25H261.691V0H264.681V0.25H267.671V0H270.661V0.25H273.652V0H276.642V0.25H279.632V0H282.622V0.25H285.612V0H288.603V0.25H291.593V0H294.583V0.25H297.573V0H300.563V0.25H303.554V0H306.544V0.25H309.534V0H312.524V0.25H315.514V0H318.505V0.25H320C320.488 0.25 320.971 0.273707 321.447 0.320019L321.471 0.0711934C322.464 0.167852 323.429 0.361376 324.356 0.642198L324.283 0.881459C325.216 1.16404 326.11 1.53654 326.954 1.98889L327.072 1.76851C327.942 2.23417 328.76 2.78301 329.516 3.4044L329.357 3.59756C330.104 4.21092 330.789 4.89614 331.402 5.64266L331.596 5.48395C332.217 6.24024 332.766 7.0584 333.231 7.92779L333.011 8.04583C333.463 8.89038 333.836 9.78404 334.119 10.7167L334.358 10.6442C334.639 11.5711 334.832 12.536 334.929 13.5292L334.68 13.5534C334.726 14.0293 334.75 14.5118 334.75 15V16.4062H335V19.2188H334.75V22.0312H335V24.8438H334.75V27.6562H335V30.4688H334.75V33.2812H335V36.0938H334.75V38.9062H335V41.7188H334.75V44.5312H335V47.3438H334.75V50.1562H335V52.9688H334.75V55.7812H335V58.5938H334.75V60C334.75 60.4882 334.726 60.9707 334.68 61.4466L334.929 61.4708C334.832 62.464 334.639 63.4289 334.358 64.3557L334.119 64.2833C333.836 65.216 333.463 66.1096 333.011 66.9542L333.231 67.0722C332.766 67.9416 332.217 68.7598 331.596 69.516L331.402 69.3573C330.789 70.1039 330.104 70.7891 329.357 71.4024L329.516 71.5956C328.76 72.217 327.942 72.7658 327.072 73.2315L326.954 73.0111C326.11 73.4635 325.216 73.836 324.283 74.1185L324.356 74.3578C323.429 74.6386 322.464 74.8322 321.471 74.9288L321.447 74.68C320.971 74.7263 320.488 74.75 320 74.75H318.505V75H315.515V74.75H312.525V75H309.534V74.75H306.544V75H303.554V74.75H300.564V75H297.574V74.75H294.583V75H291.593V74.75H288.603V75H285.613V74.75H282.623V75H279.632V74.75H276.642V75H273.652V74.75H270.662V75H267.672V74.75H264.681V75H261.691V74.75H258.701V75H255.711V74.75H252.721V75H249.73V74.75H246.74V75H243.75V74.75H240.76V75H237.77V74.75H234.779V75H231.789V74.75H228.799V75H225.809V74.75H222.819V75H219.828V74.75H216.838V75H213.848V74.75H210.858V75H207.868V74.75H204.877V75H201.887V74.75H198.897V75H195.907V74.75H192.917V75H189.926V74.75H186.936V75H183.946V74.75H180.956V75H177.966V74.75H174.976V75H171.985V74.75H168.995V75H166.005V74.75H163.015V75H160.025V74.75H157.034V75H154.044V74.75H151.054V75H148.064V74.75H145.074V75H142.083V74.75H139.093V75H136.103V74.75H133.113V75H130.123V74.75H127.133V75H124.142V74.75H121.152V75H118.162V74.75H115.172V75H112.182V74.75H109.191V75H106.201V74.75H103.211V75H100.221V74.75H97.2306V75H94.2404V74.75H91.2502V75H88.2601V74.75H85.2699V75H82.2797V74.75H79.2895V75H76.2993V74.75H73.3091V75H70.3189V74.75H67.3288V75H64.3386V74.75H61.3484V75H58.3582V74.75H55.368V75H52.3778V74.75H49.3876V75H46.3974V74.75H43.4071V75H40.4169V74.75H37.4267V75H34.4365V74.75H31.4463V75H28.4561V74.75H25.4659V75H22.4757V74.75H19.4855V75H16.4953V74.75H15Z" stroke="#9D97B5" stroke-width="0.5" stroke-dasharray="3 3"/>
</svg>
